<mxfile host="app.diagrams.net" modified="2024-02-19T13:01:55.414Z" agent="Mozilla/5.0 (Windows NT 10.0; Win64; x64) AppleWebKit/537.36 (KHTML, like Gecko) Chrome/120.0.0.0 YaBrowser/24.1.0.0 Safari/537.36" etag="ImyJXgL_8FoNi7ebzQOn" version="23.1.5" type="device">
  <diagram id="C5RBs43oDa-KdzZeNtuy" name="Page-1">
    <mxGraphModel dx="1640" dy="995" grid="1" gridSize="10" guides="1" tooltips="1" connect="1" arrows="1" fold="1" page="1" pageScale="1" pageWidth="827" pageHeight="1169" math="0" shadow="0">
      <root>
        <mxCell id="WIyWlLk6GJQsqaUBKTNV-0" />
        <mxCell id="WIyWlLk6GJQsqaUBKTNV-1" parent="WIyWlLk6GJQsqaUBKTNV-0" />
        <mxCell id="BAWFXD3cZ5Inr72H3XLS-3" value="" style="edgeStyle=orthogonalEdgeStyle;rounded=0;orthogonalLoop=1;jettySize=auto;html=1;" edge="1" parent="WIyWlLk6GJQsqaUBKTNV-1" source="BAWFXD3cZ5Inr72H3XLS-0" target="BAWFXD3cZ5Inr72H3XLS-2">
          <mxGeometry relative="1" as="geometry" />
        </mxCell>
        <mxCell id="BAWFXD3cZ5Inr72H3XLS-0" value="start" style="ellipse;whiteSpace=wrap;html=1;" vertex="1" parent="WIyWlLk6GJQsqaUBKTNV-1">
          <mxGeometry x="340" y="40" width="130" height="40" as="geometry" />
        </mxCell>
        <mxCell id="BAWFXD3cZ5Inr72H3XLS-16" style="edgeStyle=orthogonalEdgeStyle;rounded=0;orthogonalLoop=1;jettySize=auto;html=1;entryX=0.5;entryY=0;entryDx=0;entryDy=0;" edge="1" parent="WIyWlLk6GJQsqaUBKTNV-1" source="BAWFXD3cZ5Inr72H3XLS-2" target="BAWFXD3cZ5Inr72H3XLS-14">
          <mxGeometry relative="1" as="geometry" />
        </mxCell>
        <mxCell id="BAWFXD3cZ5Inr72H3XLS-2" value="Ввести s" style="shape=parallelogram;perimeter=parallelogramPerimeter;whiteSpace=wrap;html=1;fixedSize=1;" vertex="1" parent="WIyWlLk6GJQsqaUBKTNV-1">
          <mxGeometry x="323.75" y="110" width="162.5" height="40" as="geometry" />
        </mxCell>
        <mxCell id="BAWFXD3cZ5Inr72H3XLS-13" style="edgeStyle=orthogonalEdgeStyle;rounded=0;orthogonalLoop=1;jettySize=auto;html=1;" edge="1" parent="WIyWlLk6GJQsqaUBKTNV-1" source="BAWFXD3cZ5Inr72H3XLS-4" target="BAWFXD3cZ5Inr72H3XLS-7">
          <mxGeometry relative="1" as="geometry" />
        </mxCell>
        <mxCell id="BAWFXD3cZ5Inr72H3XLS-4" value="цикл i&lt;br&gt;от 0 до n" style="shape=loopLimit;whiteSpace=wrap;html=1;" vertex="1" parent="WIyWlLk6GJQsqaUBKTNV-1">
          <mxGeometry x="355" y="290" width="100" height="80" as="geometry" />
        </mxCell>
        <mxCell id="BAWFXD3cZ5Inr72H3XLS-20" value="YES" style="edgeStyle=orthogonalEdgeStyle;rounded=0;orthogonalLoop=1;jettySize=auto;html=1;entryX=0.5;entryY=0;entryDx=0;entryDy=0;" edge="1" parent="WIyWlLk6GJQsqaUBKTNV-1" source="BAWFXD3cZ5Inr72H3XLS-7" target="BAWFXD3cZ5Inr72H3XLS-9">
          <mxGeometry relative="1" as="geometry" />
        </mxCell>
        <mxCell id="BAWFXD3cZ5Inr72H3XLS-22" value="NO" style="edgeStyle=orthogonalEdgeStyle;rounded=0;orthogonalLoop=1;jettySize=auto;html=1;entryX=-0.027;entryY=0.663;entryDx=0;entryDy=0;entryPerimeter=0;" edge="1" parent="WIyWlLk6GJQsqaUBKTNV-1" source="BAWFXD3cZ5Inr72H3XLS-7" target="BAWFXD3cZ5Inr72H3XLS-10">
          <mxGeometry relative="1" as="geometry">
            <mxPoint x="520" y="620" as="targetPoint" />
            <Array as="points">
              <mxPoint x="521" y="450" />
              <mxPoint x="521" y="667" />
            </Array>
          </mxGeometry>
        </mxCell>
        <mxCell id="BAWFXD3cZ5Inr72H3XLS-7" value="длина s[i]&amp;nbsp; &amp;lt; 4" style="rhombus;whiteSpace=wrap;html=1;" vertex="1" parent="WIyWlLk6GJQsqaUBKTNV-1">
          <mxGeometry x="346.25" y="400" width="117.5" height="100" as="geometry" />
        </mxCell>
        <mxCell id="BAWFXD3cZ5Inr72H3XLS-21" style="edgeStyle=orthogonalEdgeStyle;rounded=0;orthogonalLoop=1;jettySize=auto;html=1;entryX=0.5;entryY=1;entryDx=0;entryDy=0;" edge="1" parent="WIyWlLk6GJQsqaUBKTNV-1" source="BAWFXD3cZ5Inr72H3XLS-9" target="BAWFXD3cZ5Inr72H3XLS-10">
          <mxGeometry relative="1" as="geometry" />
        </mxCell>
        <mxCell id="BAWFXD3cZ5Inr72H3XLS-9" value="добавить строку s[i]&amp;nbsp; в список s_new" style="rounded=0;whiteSpace=wrap;html=1;" vertex="1" parent="WIyWlLk6GJQsqaUBKTNV-1">
          <mxGeometry x="346.25" y="540" width="120" height="60" as="geometry" />
        </mxCell>
        <mxCell id="BAWFXD3cZ5Inr72H3XLS-24" style="edgeStyle=orthogonalEdgeStyle;rounded=0;orthogonalLoop=1;jettySize=auto;html=1;entryX=0.5;entryY=0;entryDx=0;entryDy=0;" edge="1" parent="WIyWlLk6GJQsqaUBKTNV-1" source="BAWFXD3cZ5Inr72H3XLS-10" target="BAWFXD3cZ5Inr72H3XLS-23">
          <mxGeometry relative="1" as="geometry" />
        </mxCell>
        <mxCell id="BAWFXD3cZ5Inr72H3XLS-10" value="Увеличить&amp;nbsp;&lt;br&gt;i на 1&lt;br&gt;Цикл i" style="shape=loopLimit;whiteSpace=wrap;html=1;rotation=0;direction=west;" vertex="1" parent="WIyWlLk6GJQsqaUBKTNV-1">
          <mxGeometry x="356.25" y="640" width="100" height="80" as="geometry" />
        </mxCell>
        <mxCell id="BAWFXD3cZ5Inr72H3XLS-19" style="edgeStyle=orthogonalEdgeStyle;rounded=0;orthogonalLoop=1;jettySize=auto;html=1;entryX=0.5;entryY=0;entryDx=0;entryDy=0;" edge="1" parent="WIyWlLk6GJQsqaUBKTNV-1" source="BAWFXD3cZ5Inr72H3XLS-14" target="BAWFXD3cZ5Inr72H3XLS-4">
          <mxGeometry relative="1" as="geometry" />
        </mxCell>
        <mxCell id="BAWFXD3cZ5Inr72H3XLS-14" value="&#xa;&lt;span style=&quot;color: rgb(0, 0, 0); font-family: Helvetica; font-size: 12px; font-style: normal; font-variant-ligatures: normal; font-variant-caps: normal; font-weight: 400; letter-spacing: normal; orphans: 2; text-align: center; text-indent: 0px; text-transform: none; widows: 2; word-spacing: 0px; -webkit-text-stroke-width: 0px; background-color: rgb(251, 251, 251); text-decoration-thickness: initial; text-decoration-style: initial; text-decoration-color: initial; float: none; display: inline !important;&quot;&gt;n = количество элементов в s&lt;/span&gt;&lt;br style=&quot;border-color: var(--border-color); color: rgb(0, 0, 0); font-family: Helvetica; font-size: 12px; font-style: normal; font-variant-ligatures: normal; font-variant-caps: normal; font-weight: 400; letter-spacing: normal; orphans: 2; text-align: center; text-indent: 0px; text-transform: none; widows: 2; word-spacing: 0px; -webkit-text-stroke-width: 0px; background-color: rgb(251, 251, 251); text-decoration-thickness: initial; text-decoration-style: initial; text-decoration-color: initial;&quot;&gt;&lt;span style=&quot;color: rgb(0, 0, 0); font-family: Helvetica; font-size: 12px; font-style: normal; font-variant-ligatures: normal; font-variant-caps: normal; font-weight: 400; letter-spacing: normal; orphans: 2; text-align: center; text-indent: 0px; text-transform: none; widows: 2; word-spacing: 0px; -webkit-text-stroke-width: 0px; background-color: rgb(251, 251, 251); text-decoration-thickness: initial; text-decoration-style: initial; text-decoration-color: initial; float: none; display: inline !important;&quot;&gt;s_new = []&lt;/span&gt;&#xa;&#xa;" style="rounded=0;whiteSpace=wrap;html=1;" vertex="1" parent="WIyWlLk6GJQsqaUBKTNV-1">
          <mxGeometry x="305" y="190" width="200" height="60" as="geometry" />
        </mxCell>
        <mxCell id="BAWFXD3cZ5Inr72H3XLS-26" style="edgeStyle=orthogonalEdgeStyle;rounded=0;orthogonalLoop=1;jettySize=auto;html=1;entryX=0.5;entryY=0;entryDx=0;entryDy=0;" edge="1" parent="WIyWlLk6GJQsqaUBKTNV-1" source="BAWFXD3cZ5Inr72H3XLS-23" target="BAWFXD3cZ5Inr72H3XLS-25">
          <mxGeometry relative="1" as="geometry" />
        </mxCell>
        <mxCell id="BAWFXD3cZ5Inr72H3XLS-23" value="Вывести s_new" style="shape=parallelogram;perimeter=parallelogramPerimeter;whiteSpace=wrap;html=1;fixedSize=1;" vertex="1" parent="WIyWlLk6GJQsqaUBKTNV-1">
          <mxGeometry x="325" y="770" width="162.5" height="40" as="geometry" />
        </mxCell>
        <mxCell id="BAWFXD3cZ5Inr72H3XLS-25" value="end" style="ellipse;whiteSpace=wrap;html=1;" vertex="1" parent="WIyWlLk6GJQsqaUBKTNV-1">
          <mxGeometry x="341.25" y="850" width="130" height="40" as="geometry" />
        </mxCell>
      </root>
    </mxGraphModel>
  </diagram>
</mxfile>
